<svg width="616" height="616" viewBox="0 0 616 616" fill="none" xmlns="http://www.w3.org/2000/svg">
<path d="M501.93 0H114.074C51.073 0 0 51.0727 0 114.074V501.926C0 564.927 51.073 616 114.074 616H501.93C564.93 616 616 564.927 616 501.926V114.074C616 51.0727 564.93 0 501.93 0Z" fill="url(#paint0_linear_3_323)"/>
<path d="M85.556 434.907L308 536.861V554.685L85.556 452.732V434.907Z" fill="url(#paint1_linear_3_323)"/>
<path d="M80.155 426.491C83.021 424.652 86.627 424.398 89.723 425.817L312.17 527.771C315.72 529.4 318 532.952 318 536.862V554.685C318 558.09 316.27 561.263 313.4 563.102C310.53 564.941 306.93 565.194 303.83 563.776L81.389 461.822C77.834 460.193 75.556 456.642 75.556 452.732V434.907C75.556 431.502 77.289 428.331 80.155 426.491Z" fill="url(#paint2_linear_3_323)"/>
<path d="M308 536.861L530.44 434.907V452.732L308 554.685V536.861Z" fill="url(#paint3_linear_3_323)"/>
<path d="M526.28 425.817C529.37 424.398 532.98 424.652 535.84 426.491C538.71 428.331 540.44 431.502 540.44 434.907V452.732C540.44 456.642 538.17 460.193 534.61 461.822L312.17 563.776C309.07 565.195 305.47 564.941 302.6 563.102C299.73 561.263 298 558.09 298 554.685V536.862C298 532.952 300.28 529.4 303.83 527.771L526.28 425.817Z" fill="url(#paint4_linear_3_323)"/>
<path d="M308 332.954L530.44 434.907L308 536.861L85.556 434.907L308 332.954Z" fill="#8B7B23"/>
<path d="M304.33 323.65C306.86 322.655 309.69 322.726 312.17 323.863L534.61 425.817C538.17 427.446 540.44 430.997 540.44 434.907C540.44 438.817 538.17 442.369 534.61 443.998L312.17 545.952C309.52 547.164 306.48 547.164 303.83 545.952L81.389 443.998C77.834 442.368 75.556 438.817 75.556 434.907C75.556 430.998 77.834 427.446 81.389 425.817L303.83 323.863L304.33 323.65ZM109.556 434.907L308 525.86L506.44 434.907L308 343.954L109.556 434.907Z" fill="url(#paint5_linear_3_323)"/>
<path d="M85.556 370.741L308 472.694V490.519L85.556 388.565V370.741Z" fill="#ACC5D9"/>
<path d="M80.155 362.325C83.021 360.486 86.627 360.231 89.723 361.65L312.17 463.604C315.72 465.233 318 468.785 318 472.695V490.518C318 493.924 316.27 497.096 313.4 498.935C310.53 500.774 306.93 501.028 303.83 499.609L81.389 397.656C77.834 396.027 75.556 392.475 75.556 388.565V370.741C75.556 367.335 77.289 364.164 80.155 362.325Z" fill="#ACC5D9"/>
<path d="M308 472.694L530.44 370.741V388.565L308 490.519V472.694Z" fill="#85A1B8"/>
<path d="M526.28 361.65C529.37 360.231 532.98 360.486 535.84 362.325C538.71 364.164 540.44 367.335 540.44 370.741V388.565C540.44 392.475 538.17 396.027 534.61 397.656L312.17 499.609C309.07 501.028 305.47 500.774 302.6 498.935C299.73 497.096 298 493.924 298 490.518V472.695C298 468.785 300.28 465.233 303.83 463.604L526.28 361.65Z" fill="#85A1B8"/>
<path d="M308 268.787L530.44 370.741L308 472.694L85.556 370.741L308 268.787Z" fill="url(#paint6_linear_3_323)"/>
<path d="M304.33 259.483C306.86 258.489 309.69 258.56 312.17 259.696L534.61 361.65C538.17 363.28 540.44 366.831 540.44 370.741C540.44 374.651 538.17 378.202 534.61 379.831L312.17 481.785C309.52 482.998 306.48 482.997 303.83 481.785L81.389 379.831C77.834 378.202 75.556 374.65 75.556 370.741C75.556 366.831 77.834 363.28 81.389 361.65L303.83 259.696L304.33 259.483ZM109.556 370.74L308 461.693L506.44 370.74L308 279.787L109.556 370.74Z" fill="white"/>
<path d="M85.556 242.407L308 344.361V422.787L85.556 320.833V242.407Z" fill="#2378C2"/>
<path d="M80.155 233.991C83.021 232.152 86.627 231.898 89.723 233.317L312.17 335.271C315.72 336.9 318 340.452 318 344.362V422.787C318 426.193 316.27 429.364 313.4 431.203C310.53 433.042 306.93 433.297 303.83 431.878L81.389 329.924C77.834 328.295 75.556 324.743 75.556 320.833V242.407C75.556 239.002 77.289 235.831 80.155 233.991ZM95.556 314.415L298 407.202V350.777L95.556 257.99V314.415Z" fill="#2378C2"/>
<path d="M308 344.361L530.44 242.407V320.833L308 422.787V344.361Z" fill="#114478"/>
<path d="M526.28 233.317C529.37 231.898 532.98 232.152 535.84 233.991C538.71 235.831 540.44 239.002 540.44 242.407V320.833C540.44 324.743 538.17 328.295 534.61 329.924L312.17 431.878C309.07 433.297 305.47 433.042 302.6 431.203C299.73 429.364 298 426.193 298 422.787V344.362C298 340.452 300.28 336.9 303.83 335.271L526.28 233.317ZM318 350.778V407.202L520.44 314.416V257.991L318 350.778Z" fill="#114478"/>
<path d="M308 140.454L530.44 242.407L308 344.361L85.556 242.407L308 140.454Z" fill="url(#paint7_linear_3_323)"/>
<path d="M304.33 131.15C306.86 130.155 309.69 130.226 312.17 131.363L534.61 233.317C538.17 234.946 540.44 238.497 540.44 242.407C540.44 246.317 538.17 249.869 534.61 251.498L312.17 353.452C309.52 354.664 306.48 354.664 303.83 353.452L81.389 251.498C77.834 249.868 75.556 246.317 75.556 242.407C75.556 238.498 77.834 234.946 81.389 233.317L303.83 131.363L304.33 131.15ZM109.556 242.407L308 333.36L506.44 242.407L308 151.454L109.556 242.407Z" fill="#6DBFFF"/>
<path d="M264.78 64H350.33V169.296H393.11L307.56 269.111L222 169.296H264.78V64Z" fill="url(#paint8_linear_3_323)"/>
<path d="M350.33 60.5C352.263 60.5001 353.83 62.067 353.83 64V165.796H393.11C394.477 165.796 395.719 166.591 396.29 167.833C396.861 169.075 396.657 170.535 395.768 171.573L310.218 271.389C309.553 272.164 308.582 272.611 307.561 272.611C306.539 272.611 305.567 272.164 304.902 271.389L219.343 171.574C218.453 170.537 218.249 169.076 218.82 167.834C219.391 166.592 220.633 165.796 222 165.796H261.28V64C261.28 62.067 262.847 60.5 264.78 60.5H350.33ZM268.28 169.296C268.28 171.229 266.713 172.796 264.78 172.796H229.609L307.56 263.731L385.5 172.796H350.33C348.397 172.796 346.83 171.229 346.83 169.296V67.5H268.28V169.296Z" fill="white"/>
<defs>
<linearGradient id="paint0_linear_3_323" x1="0" y1="0" x2="0" y2="616" gradientUnits="userSpaceOnUse">
<stop stop-color="#0F2B57"/>
<stop offset="1" stop-color="#05132B"/>
</linearGradient>
<linearGradient id="paint1_linear_3_323" x1="-236.925" y1="-2236.66" x2="1468.92" y2="-2236.66" gradientUnits="userSpaceOnUse">
<stop stop-color="#F7E96E"/>
<stop offset="1" stop-color="#F0A500"/>
</linearGradient>
<linearGradient id="paint2_linear_3_323" x1="-191.972" y1="-1872.57" x2="1373.16" y2="-1872.57" gradientUnits="userSpaceOnUse">
<stop stop-color="#F7E96E"/>
<stop offset="1" stop-color="#F0A500"/>
</linearGradient>
<linearGradient id="paint3_linear_3_323" x1="-852.94" y1="-2236.66" x2="852.94" y2="-2236.66" gradientUnits="userSpaceOnUse">
<stop stop-color="#F7E96E"/>
<stop offset="1" stop-color="#F0A500"/>
</linearGradient>
<linearGradient id="paint4_linear_3_323" x1="-757.169" y1="-1872.56" x2="807.985" y2="-1872.56" gradientUnits="userSpaceOnUse">
<stop stop-color="#F7E96E"/>
<stop offset="1" stop-color="#F0A500"/>
</linearGradient>
<linearGradient id="paint5_linear_3_323" x1="-100.116" y1="-888.488" x2="716.122" y2="-888.488" gradientUnits="userSpaceOnUse">
<stop stop-color="#F7E96E"/>
<stop offset="1" stop-color="#F0A500"/>
</linearGradient>
<linearGradient id="paint6_linear_3_323" x1="-118.463" y1="-812.002" x2="-118.463" y2="1048.93" gradientUnits="userSpaceOnUse">
<stop stop-color="#D9E8F5"/>
<stop offset="1" stop-color="white"/>
</linearGradient>
<linearGradient id="paint7_linear_3_323" x1="-118.463" y1="-424.309" x2="-118.463" y2="1436.62" gradientUnits="userSpaceOnUse">
<stop stop-color="#3183D1"/>
<stop offset="1" stop-color="#256BB3"/>
</linearGradient>
<linearGradient id="paint8_linear_3_323" x1="0" y1="102.111" x2="0" y2="616" gradientUnits="userSpaceOnUse">
<stop stop-color="#FFEA70"/>
<stop offset="1" stop-color="#FFB31A"/>
</linearGradient>
</defs>
</svg>
