<svg width="511" height="554" viewBox="0 0 511 554" fill="none" xmlns="http://www.w3.org/2000/svg">
<path d="M10.988 410.968L255.409 522.996V542.582L10.988 430.555V410.968Z" fill="url(#paint0_linear_47_2)"/>
<path d="M5.05326 401.72C8.20229 399.699 12.1646 399.421 15.5669 400.979L259.997 513.008C263.893 514.798 266.406 518.701 266.406 522.997V542.582C266.406 546.323 264.497 549.809 261.351 551.831C258.195 553.852 254.24 554.129 250.831 552.571L6.40914 440.542C2.50329 438.753 3.05176e-05 434.851 3.05176e-05 430.555V410.968C3.05176e-05 407.227 1.90424 403.742 5.05326 401.72Z" fill="url(#paint1_linear_47_2)"/>
<path d="M255.409 522.996L499.831 410.968V430.555L255.409 542.582V522.996Z" fill="url(#paint2_linear_47_2)"/>
<path d="M495.263 400.979C498.662 399.421 502.627 399.699 505.763 401.72C508.919 403.742 510.818 407.227 510.818 410.968V430.555C510.818 434.851 508.325 438.753 504.419 440.542L259.997 552.571C256.588 554.13 252.633 553.852 249.477 551.831C246.321 549.809 244.422 546.323 244.422 542.582V522.997C244.422 518.701 246.935 514.798 250.831 513.008L495.263 400.979Z" fill="url(#paint3_linear_47_2)"/>
<path d="M255.409 298.94L499.831 410.968L255.409 522.996L10.988 410.968L255.409 298.94Z" fill="#8B7B23"/>
<path d="M251.377 288.717C254.162 287.623 257.27 287.702 259.997 288.951L504.419 400.979C508.325 402.769 510.818 406.671 510.818 410.968C510.818 415.264 508.325 419.167 504.419 420.957L259.997 532.986C257.084 534.318 253.744 534.318 250.831 532.986L6.40914 420.957C2.50329 419.166 3.05176e-05 415.264 3.05176e-05 410.968C3.05176e-05 406.672 2.50329 402.769 6.40914 400.979L250.831 288.951L251.377 288.717ZM37.3598 410.968L255.409 510.909L473.464 410.968L255.409 311.027L37.3598 410.968Z" fill="url(#paint4_linear_47_2)"/>
<path d="M10.988 340.461L255.409 452.489V472.075L10.988 360.047V340.461Z" fill="#ACC5D9"/>
<path d="M5.05326 331.214C8.20229 329.193 12.1646 328.913 15.5669 330.471L259.997 442.501C263.893 444.29 266.406 448.193 266.406 452.49V472.074C266.406 475.817 264.497 479.302 261.351 481.323C258.195 483.344 254.24 483.622 250.831 482.063L6.40914 370.035C2.50329 368.246 3.05176e-05 364.343 3.05176e-05 360.047V340.461C3.05176e-05 336.719 1.90424 333.234 5.05326 331.214Z" fill="#ACC5D9"/>
<path d="M255.409 452.489L499.831 340.461V360.047L255.409 472.075V452.489Z" fill="#85A1B8"/>
<path d="M495.263 330.471C498.662 328.913 502.627 329.193 505.763 331.214C508.919 333.234 510.818 336.719 510.818 340.461V360.047C510.818 364.343 508.325 368.246 504.419 370.035L259.997 482.063C256.588 483.622 252.633 483.344 249.477 481.323C246.321 479.302 244.422 475.817 244.422 472.074V452.49C244.422 448.193 246.935 444.29 250.831 442.501L495.263 330.471Z" fill="#85A1B8"/>
<path d="M255.409 228.432L499.831 340.461L255.409 452.489L10.988 340.461L255.409 228.432Z" fill="url(#paint5_linear_47_2)"/>
<path d="M251.377 218.209C254.162 217.117 257.27 217.195 259.997 218.443L504.419 330.471C508.325 332.263 510.818 336.165 510.818 340.461C510.818 344.757 508.325 348.659 504.419 350.45L259.997 462.478C257.084 463.811 253.744 463.81 250.831 462.478L6.40914 350.45C2.50329 348.659 3.05176e-05 344.756 3.05176e-05 340.461C3.05176e-05 336.165 2.50329 332.263 6.40914 330.471L250.831 218.443L251.377 218.209ZM37.3598 340.46L255.409 440.401L473.464 340.46L255.409 240.519L37.3598 340.46Z" fill="white"/>
<path d="M10.988 199.445L255.409 311.474V397.65L10.988 285.621V199.445Z" fill="#2378C2"/>
<path d="M5.05326 190.198C8.20229 188.177 12.1646 187.898 15.5669 189.458L259.997 301.486C263.893 303.276 266.406 307.18 266.406 311.475V397.65C266.406 401.392 264.497 404.877 261.351 406.897C258.195 408.918 254.24 409.199 250.831 407.64L6.40914 295.611C2.50329 293.821 3.05176e-05 289.918 3.05176e-05 285.621V199.445C3.05176e-05 195.704 1.90424 192.22 5.05326 190.198ZM21.976 278.569L244.422 380.525V318.524L21.976 216.569V278.569Z" fill="#2378C2"/>
<path d="M255.409 311.474L499.831 199.445V285.621L255.409 397.65V311.474Z" fill="#114478"/>
<path d="M495.263 189.458C498.662 187.898 502.627 188.177 505.763 190.198C508.919 192.22 510.818 195.704 510.818 199.445V285.621C510.818 289.918 508.325 293.821 504.419 295.611L259.997 407.64C256.588 409.199 252.633 408.918 249.477 406.897C246.321 404.877 244.422 401.392 244.422 397.65V311.475C244.422 307.18 246.935 303.276 250.831 301.486L495.263 189.458ZM266.406 318.525V380.525L488.844 278.57V216.57L266.406 318.525Z" fill="#114478"/>
<path d="M255.409 87.4179L499.831 199.445L255.409 311.474L10.988 199.445L255.409 87.4179Z" fill="url(#paint6_linear_47_2)"/>
<path d="M251.377 77.1945C254.162 76.1016 257.27 76.1795 259.997 77.4282L504.419 189.458C508.325 191.247 510.818 195.149 510.818 199.445C510.818 203.742 508.325 207.645 504.419 209.435L259.997 321.464C257.084 322.795 253.744 322.795 250.831 321.464L6.40914 209.435C2.50329 207.644 3.05176e-05 203.742 3.05176e-05 199.445C3.05176e-05 195.15 2.50329 191.247 6.40914 189.458L250.831 77.4282L251.377 77.1945ZM37.3598 199.445L255.409 299.386L473.464 199.445L255.409 99.5045L37.3598 199.445Z" fill="#6DBFFF"/>
<path d="M207.922 3.40909H301.929V119.11H348.935L254.932 228.788L160.915 119.11H207.922V3.40909Z" fill="url(#paint7_linear_47_2)"/>
<path d="M301.929 0C303.808 9.74026e-05 305.338 1.5263 305.338 3.40909V115.701H348.935C350.27 115.701 351.477 116.476 352.033 117.686C352.588 118.895 352.383 120.319 351.526 121.329L257.523 231.007C256.87 231.763 255.925 232.198 254.932 232.198C253.938 232.198 252.993 231.763 252.341 231.007L158.327 121.329C157.46 120.319 157.261 118.895 157.818 117.686C158.375 116.476 159.583 115.701 160.915 115.701H204.513V3.40909C204.513 1.5264 206.04 9.74026e-05 207.922 0H301.929ZM211.332 119.11C211.332 120.993 209.805 122.519 207.922 122.519H168.326L254.932 223.549L341.523 122.519H301.929C300.039 122.519 298.52 120.993 298.52 119.11V6.81818H211.332V119.11Z" fill="white"/>
<defs>
<linearGradient id="paint0_linear_47_2" x1="-49.6753" y1="278.084" x2="550.325" y2="278.084" gradientUnits="userSpaceOnUse">
<stop stop-color="#F7E96E"/>
<stop offset="1" stop-color="#F0A500"/>
</linearGradient>
<linearGradient id="paint1_linear_47_2" x1="-49.6753" y1="278.084" x2="550.325" y2="278.084" gradientUnits="userSpaceOnUse">
<stop stop-color="#F7E96E"/>
<stop offset="1" stop-color="#F0A500"/>
</linearGradient>
<linearGradient id="paint2_linear_47_2" x1="-49.6753" y1="278.084" x2="550.325" y2="278.084" gradientUnits="userSpaceOnUse">
<stop stop-color="#F7E96E"/>
<stop offset="1" stop-color="#F0A500"/>
</linearGradient>
<linearGradient id="paint3_linear_47_2" x1="-49.6753" y1="278.084" x2="550.325" y2="278.084" gradientUnits="userSpaceOnUse">
<stop stop-color="#F7E96E"/>
<stop offset="1" stop-color="#F0A500"/>
</linearGradient>
<linearGradient id="paint4_linear_47_2" x1="-49.6753" y1="278.084" x2="550.325" y2="278.084" gradientUnits="userSpaceOnUse">
<stop stop-color="#F7E96E"/>
<stop offset="1" stop-color="#F0A500"/>
</linearGradient>
<linearGradient id="paint5_linear_47_2" x1="-49.6753" y1="278.084" x2="550.325" y2="278.084" gradientUnits="userSpaceOnUse">
<stop stop-color="#D9E8F5"/>
<stop offset="1" stop-color="white"/>
</linearGradient>
<linearGradient id="paint6_linear_47_2" x1="-49.6753" y1="278.084" x2="550.325" y2="278.084" gradientUnits="userSpaceOnUse">
<stop stop-color="#3183D1"/>
<stop offset="1" stop-color="#256BB3"/>
</linearGradient>
<linearGradient id="paint7_linear_47_2" x1="-49.6753" y1="278.084" x2="550.325" y2="278.084" gradientUnits="userSpaceOnUse">
<stop stop-color="#FFEA70"/>
<stop offset="1" stop-color="#FFB31A"/>
</linearGradient>
</defs>
</svg>
