<svg width="1010" height="562" viewBox="0 0 1010 562" fill="none" xmlns="http://www.w3.org/2000/svg">
  <path d="M300.193 165.185V22.6807C300.193 16.2294 305.423 11 311.874 11H697.336C703.787 11 709.017 16.2294 709.017 22.6807V165.185" stroke="url(#paint0_linear_0_1)" stroke-width="22" stroke-linecap="square" stroke-linejoin="round"/>
  <path d="M300.193 265.639V408.143C300.193 414.594 305.423 419.824 311.874 419.824H697.336C703.787 419.824 709.017 414.594 709.017 408.143V265.639" stroke="url(#paint1_linear_0_1)" stroke-width="22" stroke-linecap="square" stroke-linejoin="round"/>
  <path d="M0 215.996C256.975 176.866 752.235 176.866 1009.21 215.996C752.235 194.387 256.975 194.387 0 215.996Z" fill="url(#paint2_linear_0_1)"/>
  <path d="M300.193 428H709.017" stroke="black" stroke-opacity="0.05" stroke-width="4" stroke-linecap="round"/>
  <path d="M311.874 15.6723H697.336" stroke="white" stroke-opacity="0.1" stroke-linecap="round"/>
  <path d="M51.392 560V470.784H82.624C88.4267 470.784 93.248 471.595 97.088 473.216C100.928 474.752 103.829 477.184 105.792 480.512C107.755 483.755 108.736 487.936 108.736 493.056C108.736 497.067 108.224 500.48 107.2 503.296C106.176 506.027 104.768 508.245 102.976 509.952C101.184 511.659 99.0933 513.024 96.704 514.048C99.264 514.731 101.696 515.883 104 517.504C106.389 519.125 108.309 521.387 109.76 524.288C111.211 527.104 111.936 530.773 111.936 535.296C111.936 540.075 111.296 544.085 110.016 547.328C108.736 550.485 106.859 553.003 104.384 554.88C101.995 556.672 99.136 557.995 95.808 558.848C92.5653 559.616 88.896 560 84.8 560H51.392ZM57.792 554.24H84.672C88.768 554.24 92.352 553.685 95.424 552.576C98.5813 551.381 101.013 549.419 102.72 546.688C104.512 543.957 105.408 540.117 105.408 535.168C105.408 530.987 104.597 527.701 102.976 525.312C101.355 522.923 99.3493 521.173 96.96 520.064C94.656 518.869 92.3093 518.144 89.92 517.888C87.5307 517.547 85.4827 517.376 83.776 517.376H57.792V554.24ZM57.792 511.616H83.776C88.128 511.616 91.6267 510.933 94.272 509.568C97.0027 508.203 99.008 506.197 100.288 503.552C101.568 500.821 102.208 497.408 102.208 493.312C102.208 487.424 100.587 483.157 97.344 480.512C94.1013 477.867 89.152 476.544 82.496 476.544H57.792V511.616Z" fill="black"/>
  <path d="M150.741 561.152C144.426 561.152 139.477 559.872 135.893 557.312C132.309 554.752 129.792 550.997 128.341 546.048C126.89 541.099 126.165 535.125 126.165 528.128C126.165 519.765 127.317 513.195 129.621 508.416C131.925 503.552 134.997 500.096 138.837 498.048C142.762 495.915 147.285 494.848 152.405 494.848C160.426 494.848 166.528 497.195 170.709 501.888C174.976 506.581 177.109 514.389 177.109 525.312L176.981 530.56H132.565C132.65 538.667 134.016 544.896 136.661 549.248C139.306 553.515 144.128 555.648 151.125 555.648C153.429 555.648 155.989 555.605 158.805 555.52C161.621 555.349 164.437 555.179 167.253 555.008C170.069 554.837 172.501 554.667 174.549 554.496L174.805 559.744C172.757 559.915 170.282 560.128 167.381 560.384C164.565 560.64 161.664 560.811 158.677 560.896C155.776 561.067 153.13 561.152 150.741 561.152ZM132.565 525.184H170.709C170.709 515.968 169.216 509.525 166.229 505.856C163.328 502.101 158.72 500.224 152.405 500.224C148.309 500.224 144.768 501.077 141.781 502.784C138.88 504.405 136.618 507.051 134.997 510.72C133.376 514.304 132.565 519.125 132.565 525.184Z" fill="black"/>
  <path d="M212.172 561.152C210.295 561.152 208.033 561.024 205.388 560.768C202.828 560.597 200.225 560.341 197.58 560C194.935 559.659 192.588 559.317 190.54 558.976L191.052 553.472C193.1 553.728 195.404 554.027 197.964 554.368C200.609 554.709 203.169 555.008 205.644 555.264C208.119 555.435 210.124 555.52 211.66 555.52C215.5 555.52 218.785 555.179 221.516 554.496C224.332 553.728 226.465 552.363 227.916 550.4C229.452 548.352 230.22 545.493 230.22 541.824C230.22 539.093 229.665 536.96 228.556 535.424C227.447 533.888 225.527 532.736 222.796 531.968C220.151 531.115 216.311 530.304 211.276 529.536C206.412 528.768 202.359 527.829 199.116 526.72C195.959 525.611 193.612 523.989 192.076 521.856C190.54 519.637 189.772 516.523 189.772 512.512C189.772 507.904 190.881 504.32 193.1 501.76C195.319 499.2 198.135 497.408 201.548 496.384C204.961 495.36 208.46 494.848 212.044 494.848C214.433 494.848 216.993 494.976 219.724 495.232C222.54 495.403 225.228 495.659 227.788 496C230.433 496.341 232.652 496.64 234.444 496.896L234.188 502.528C232.225 502.187 229.921 501.888 227.276 501.632C224.716 501.291 222.071 501.035 219.34 500.864C216.695 500.608 214.305 500.48 212.172 500.48C209.527 500.48 206.967 500.821 204.492 501.504C202.017 502.101 200.012 503.253 198.476 504.96C196.94 506.581 196.172 508.971 196.172 512.128C196.172 514.603 196.641 516.565 197.58 518.016C198.519 519.381 200.268 520.533 202.828 521.472C205.388 522.325 209.057 523.136 213.836 523.904C219.383 524.757 223.82 525.781 227.148 526.976C230.476 528.171 232.865 529.877 234.316 532.096C235.852 534.229 236.62 537.344 236.62 541.44C236.62 546.389 235.639 550.315 233.676 553.216C231.713 556.117 228.897 558.165 225.228 559.36C221.644 560.555 217.292 561.152 212.172 561.152Z" fill="black"/>
  <path d="M272.83 561.28C268.819 561.28 265.577 560.64 263.102 559.36C260.713 558.08 258.963 555.819 257.854 552.576C256.745 549.248 256.19 544.512 256.19 538.368V501.504H246.334V496H256.19V475.52H262.334V496H284.606V501.504H262.334V534.016C262.334 539.819 262.547 544.299 262.974 547.456C263.486 550.528 264.51 552.661 266.046 553.856C267.667 555.051 270.057 555.648 273.214 555.648C274.067 555.648 275.219 555.605 276.67 555.52C278.121 555.435 279.614 555.307 281.15 555.136C282.771 554.965 284.179 554.837 285.374 554.752L285.886 560.128C284.691 560.299 283.283 560.469 281.662 560.64C280.041 560.811 278.419 560.939 276.798 561.024C275.262 561.195 273.939 561.28 272.83 561.28Z" fill="black"/>
  <path d="M316.842 560V476.672H287.914V470.784H351.914V476.672H323.242V560H316.842Z" fill="black"/>
  <path d="M379.164 561.152C372.167 561.152 366.748 560.043 362.908 557.824C359.068 555.605 356.423 551.979 354.972 546.944C353.521 541.909 352.796 535.253 352.796 526.976C352.796 519.211 353.649 512.981 355.356 508.288C357.063 503.595 359.836 500.181 363.676 498.048C367.601 495.915 372.764 494.848 379.164 494.848C385.649 494.848 390.812 495.915 394.652 498.048C398.577 500.181 401.393 503.595 403.1 508.288C404.807 512.981 405.66 519.211 405.66 526.976C405.66 535.253 404.935 541.909 403.484 546.944C402.033 551.979 399.388 555.605 395.548 557.824C391.793 560.043 386.332 561.152 379.164 561.152ZM379.164 555.648C385.052 555.648 389.404 554.709 392.22 552.832C395.121 550.955 396.999 547.925 397.852 543.744C398.705 539.477 399.132 533.888 399.132 526.976C399.132 520.235 398.535 514.944 397.34 511.104C396.145 507.179 394.097 504.405 391.196 502.784C388.38 501.163 384.369 500.352 379.164 500.352C374.044 500.352 370.033 501.163 367.132 502.784C364.231 504.405 362.183 507.179 360.988 511.104C359.793 514.944 359.196 520.235 359.196 526.976C359.196 533.888 359.623 539.477 360.476 543.744C361.415 547.925 363.292 550.955 366.108 552.832C368.924 554.709 373.276 555.648 379.164 555.648Z" fill="black"/>
  <path d="M446.664 561.152C439.667 561.152 434.248 560.043 430.408 557.824C426.568 555.605 423.923 551.979 422.472 546.944C421.021 541.909 420.296 535.253 420.296 526.976C420.296 519.211 421.149 512.981 422.856 508.288C424.563 503.595 427.336 500.181 431.176 498.048C435.101 495.915 440.264 494.848 446.664 494.848C453.149 494.848 458.312 495.915 462.152 498.048C466.077 500.181 468.893 503.595 470.6 508.288C472.307 512.981 473.16 519.211 473.16 526.976C473.16 535.253 472.435 541.909 470.984 546.944C469.533 551.979 466.888 555.605 463.048 557.824C459.293 560.043 453.832 561.152 446.664 561.152ZM446.664 555.648C452.552 555.648 456.904 554.709 459.72 552.832C462.621 550.955 464.499 547.925 465.352 543.744C466.205 539.477 466.632 533.888 466.632 526.976C466.632 520.235 466.035 514.944 464.84 511.104C463.645 507.179 461.597 504.405 458.696 502.784C455.88 501.163 451.869 500.352 446.664 500.352C441.544 500.352 437.533 501.163 434.632 502.784C431.731 504.405 429.683 507.179 428.488 511.104C427.293 514.944 426.696 520.235 426.696 526.976C426.696 533.888 427.123 539.477 427.976 543.744C428.915 547.925 430.792 550.955 433.608 552.832C436.424 554.709 440.776 555.648 446.664 555.648Z" fill="black"/>
  <path d="M491.124 560V467.072H497.268V560H491.124Z" fill="black"/>
  <path d="M536.547 561.152C534.67 561.152 532.408 561.024 529.763 560.768C527.203 560.597 524.6 560.341 521.955 560C519.31 559.659 516.963 559.317 514.915 558.976L515.427 553.472C517.475 553.728 519.779 554.027 522.339 554.368C524.984 554.709 527.544 555.008 530.019 555.264C532.494 555.435 534.499 555.52 536.035 555.52C539.875 555.52 543.16 555.179 545.891 554.496C548.707 553.728 550.84 552.363 552.291 550.4C553.827 548.352 554.595 545.493 554.595 541.824C554.595 539.093 554.04 536.96 552.931 535.424C551.822 533.888 549.902 532.736 547.171 531.968C544.526 531.115 540.686 530.304 535.651 529.536C530.787 528.768 526.734 527.829 523.491 526.72C520.334 525.611 517.987 523.989 516.451 521.856C514.915 519.637 514.147 516.523 514.147 512.512C514.147 507.904 515.256 504.32 517.475 501.76C519.694 499.2 522.51 497.408 525.923 496.384C529.336 495.36 532.835 494.848 536.419 494.848C538.808 494.848 541.368 494.976 544.099 495.232C546.915 495.403 549.603 495.659 552.163 496C554.808 496.341 557.027 496.64 558.819 496.896L558.563 502.528C556.6 502.187 554.296 501.888 551.651 501.632C549.091 501.291 546.446 501.035 543.715 500.864C541.07 500.608 538.68 500.48 536.547 500.48C533.902 500.48 531.342 500.821 528.867 501.504C526.392 502.101 524.387 503.253 522.851 504.96C521.315 506.581 520.547 508.971 520.547 512.128C520.547 514.603 521.016 516.565 521.955 518.016C522.894 519.381 524.643 520.533 527.203 521.472C529.763 522.325 533.432 523.136 538.211 523.904C543.758 524.757 548.195 525.781 551.523 526.976C554.851 528.171 557.24 529.877 558.691 532.096C560.227 534.229 560.995 537.344 560.995 541.44C560.995 546.389 560.014 550.315 558.051 553.216C556.088 556.117 553.272 558.165 549.603 559.36C546.019 560.555 541.667 561.152 536.547 561.152Z" fill="black"/>
  <path d="M578.517 560V470.784H630.485V476.672H584.917V515.072H623.957V520.832H584.917V560H578.517Z" fill="black"/>
  <path d="M664.289 561.152C657.292 561.152 651.873 560.043 648.033 557.824C644.193 555.605 641.548 551.979 640.097 546.944C638.646 541.909 637.921 535.253 637.921 526.976C637.921 519.211 638.774 512.981 640.481 508.288C642.188 503.595 644.961 500.181 648.801 498.048C652.726 495.915 657.889 494.848 664.289 494.848C670.774 494.848 675.937 495.915 679.777 498.048C683.702 500.181 686.518 503.595 688.225 508.288C689.932 512.981 690.785 519.211 690.785 526.976C690.785 535.253 690.06 541.909 688.609 546.944C687.158 551.979 684.513 555.605 680.673 557.824C676.918 560.043 671.457 561.152 664.289 561.152ZM664.289 555.648C670.177 555.648 674.529 554.709 677.345 552.832C680.246 550.955 682.124 547.925 682.977 543.744C683.83 539.477 684.257 533.888 684.257 526.976C684.257 520.235 683.66 514.944 682.465 511.104C681.27 507.179 679.222 504.405 676.321 502.784C673.505 501.163 669.494 500.352 664.289 500.352C659.169 500.352 655.158 501.163 652.257 502.784C649.356 504.405 647.308 507.179 646.113 511.104C644.918 514.944 644.321 520.235 644.321 526.976C644.321 533.888 644.748 539.477 645.601 543.744C646.54 547.925 648.417 550.955 651.233 552.832C654.049 554.709 658.401 555.648 664.289 555.648Z" fill="black"/>
  <path d="M707.981 560V496H714.125V505.6C715.746 504.32 717.837 502.955 720.397 501.504C723.042 500.053 725.944 498.688 729.101 497.408C732.344 496.128 735.586 495.232 738.829 494.72V500.992C735.842 501.589 732.77 502.485 729.613 503.68C726.456 504.875 723.512 506.155 720.781 507.52C718.136 508.885 715.917 510.08 714.125 511.104V560H707.981Z" fill="black"/>
  <path d="M770.616 561.152C764.301 561.152 759.352 559.872 755.768 557.312C752.184 554.752 749.667 550.997 748.216 546.048C746.765 541.099 746.04 535.125 746.04 528.128C746.04 519.765 747.192 513.195 749.496 508.416C751.8 503.552 754.872 500.096 758.712 498.048C762.637 495.915 767.16 494.848 772.28 494.848C780.301 494.848 786.403 497.195 790.584 501.888C794.851 506.581 796.984 514.389 796.984 525.312L796.856 530.56H752.44C752.525 538.667 753.891 544.896 756.536 549.248C759.181 553.515 764.003 555.648 771 555.648C773.304 555.648 775.864 555.605 778.68 555.52C781.496 555.349 784.312 555.179 787.128 555.008C789.944 554.837 792.376 554.667 794.424 554.496L794.68 559.744C792.632 559.915 790.157 560.128 787.256 560.384C784.44 560.64 781.539 560.811 778.552 560.896C775.651 561.067 773.005 561.152 770.616 561.152ZM752.44 525.184H790.584C790.584 515.968 789.091 509.525 786.104 505.856C783.203 502.101 778.595 500.224 772.28 500.224C768.184 500.224 764.643 501.077 761.656 502.784C758.755 504.405 756.493 507.051 754.872 510.72C753.251 514.304 752.44 519.125 752.44 525.184Z" fill="black"/>
  <path d="M825.537 560L806.337 496H813.249L830.273 554.496H835.649L853.057 496H859.585L840.385 560H825.537Z" fill="black"/>
  <path d="M893.866 561.152C887.551 561.152 882.602 559.872 879.018 557.312C875.434 554.752 872.917 550.997 871.466 546.048C870.015 541.099 869.29 535.125 869.29 528.128C869.29 519.765 870.442 513.195 872.746 508.416C875.05 503.552 878.122 500.096 881.962 498.048C885.887 495.915 890.41 494.848 895.53 494.848C903.551 494.848 909.653 497.195 913.834 501.888C918.101 506.581 920.234 514.389 920.234 525.312L920.106 530.56H875.69C875.775 538.667 877.141 544.896 879.786 549.248C882.431 553.515 887.253 555.648 894.25 555.648C896.554 555.648 899.114 555.605 901.93 555.52C904.746 555.349 907.562 555.179 910.378 555.008C913.194 554.837 915.626 554.667 917.674 554.496L917.93 559.744C915.882 559.915 913.407 560.128 910.506 560.384C907.69 560.64 904.789 560.811 901.802 560.896C898.901 561.067 896.255 561.152 893.866 561.152ZM875.69 525.184H913.834C913.834 515.968 912.341 509.525 909.354 505.856C906.453 502.101 901.845 500.224 895.53 500.224C891.434 500.224 887.893 501.077 884.906 502.784C882.005 504.405 879.743 507.051 878.122 510.72C876.501 514.304 875.69 519.125 875.69 525.184Z" fill="black"/>
  <path d="M936.481 560V496H942.625V505.6C944.246 504.32 946.337 502.955 948.897 501.504C951.542 500.053 954.444 498.688 957.601 497.408C960.844 496.128 964.086 495.232 967.329 494.72V500.992C964.342 501.589 961.27 502.485 958.113 503.68C954.956 504.875 952.012 506.155 949.281 507.52C946.636 508.885 944.417 510.08 942.625 511.104V560H936.481Z" fill="black"/>
  <defs>
    <linearGradient id="paint0_linear_0_1" x1="504.605" y1="11" x2="504.605" y2="419.824" gradientUnits="userSpaceOnUse">
      <stop stop-color="#2C3440"/>
      <stop offset="1" stop-color="#1A1F2C"/>
    </linearGradient>
    <linearGradient id="paint1_linear_0_1" x1="504.605" y1="11" x2="504.605" y2="419.824" gradientUnits="userSpaceOnUse">
      <stop stop-color="#2C3440"/>
      <stop offset="1" stop-color="#1A1F2C"/>
    </linearGradient>
    <linearGradient id="paint2_linear_0_1" x1="0" y1="215.412" x2="1009.21" y2="215.412" gradientUnits="userSpaceOnUse">
      <stop stop-color="#1A1F2C" stop-opacity="0.8"/>
      <stop offset="0.5" stop-color="#2C3440"/>
      <stop offset="1" stop-color="#1A1F2C" stop-opacity="0.8"/>
    </linearGradient>
  </defs>
</svg>
