<svg width="1010" height="431" viewBox="0 0 1010 431" fill="none" xmlns="http://www.w3.org/2000/svg">
  <path d="M300.193 165.185V22.6807C300.193 16.2294 305.423 11 311.874 11H697.336C703.787 11 709.017 16.2294 709.017 22.6807V165.185" stroke="url(#paint0_linear_1_2)" stroke-width="22" stroke-linecap="square" stroke-linejoin="round"/>
  <path d="M300.193 265.639V408.143C300.193 414.594 305.423 419.824 311.874 419.824H697.336C703.787 419.824 709.017 414.594 709.017 408.143V265.639" stroke="url(#paint1_linear_1_2)" stroke-width="22" stroke-linecap="square" stroke-linejoin="round"/>
  <path d="M0 215.996C256.975 176.866 752.235 176.866 1009.21 215.996C752.235 194.387 256.975 194.387 0 215.996Z" fill="url(#paint2_linear_1_2)"/>
  <path d="M300.193 428H709.017" stroke="black" stroke-opacity="0.05" stroke-width="4" stroke-linecap="round"/>
  <path d="M311.874 15.6723H697.336" stroke="white" stroke-opacity="0.1" stroke-linecap="round"/>
  <defs>
    <linearGradient id="paint0_linear_1_2" x1="504.605" y1="11" x2="504.605" y2="419.824" gradientUnits="userSpaceOnUse">
      <stop stop-color="#2C3440"/>
      <stop offset="1" stop-color="#1A1F2C"/>
    </linearGradient>
    <linearGradient id="paint1_linear_1_2" x1="504.605" y1="11" x2="504.605" y2="419.824" gradientUnits="userSpaceOnUse">
      <stop stop-color="#2C3440"/>
      <stop offset="1" stop-color="#1A1F2C"/>
    </linearGradient>
    <linearGradient id="paint2_linear_1_2" x1="0" y1="215.412" x2="1009.21" y2="215.412" gradientUnits="userSpaceOnUse">
      <stop stop-color="#1A1F2C" stop-opacity="0.8"/>
      <stop offset="0.5" stop-color="#2C3440"/>
      <stop offset="1" stop-color="#1A1F2C" stop-opacity="0.8"/>
    </linearGradient>
  </defs>
</svg>
